<?xml version="1.0" encoding="utf-8" ?>
<svg xmlns="http://www.w3.org/2000/svg"
     xmlns:xlink="http://www.w3.org/1999/xlink"
     width="200" height="200"
     viewBox="50 47 102 108"
     preserveAspectRatio="xMidYMid meet">
  <path fill="#006FEE" transform="scale(0.195312 0.195312)" d="M319.919 241.418C325.583 243.787 337.788 253.201 343.456 257.008C358.133 266.867 373.149 276.248 387.777 286.167C399.176 280.851 409.953 274.987 421.82 270.69Q424.42 269.769 427.037 268.901Q429.655 268.033 432.29 267.218Q434.925 266.403 437.576 265.642Q440.226 264.881 442.892 264.174Q445.558 263.467 448.238 262.815Q450.917 262.162 453.609 261.564Q456.302 260.966 459.006 260.423Q461.71 259.88 464.424 259.392Q467.138 258.904 469.862 258.471Q472.586 258.039 475.318 257.661Q478.05 257.284 480.789 256.962Q483.528 256.641 486.273 256.375Q489.018 256.109 491.768 255.899Q494.518 255.689 497.272 255.535Q500.026 255.381 502.782 255.283Q505.538 255.185 508.296 255.143Q511.053 255.101 513.811 255.115Q516.569 255.129 519.326 255.199Q522.083 255.27 524.838 255.396Q527.593 255.522 530.345 255.704Q533.097 255.887 535.844 256.125Q538.592 256.363 541.334 256.657Q544.077 256.951 546.812 257.3Q549.548 257.65 552.276 258.055Q555.004 258.461 557.723 258.921Q560.442 259.382 563.151 259.897Q565.861 260.413 568.559 260.984Q571.257 261.555 573.943 262.18Q576.629 262.806 579.302 263.486Q581.975 264.166 584.633 264.9Q587.292 265.634 589.935 266.422Q592.578 267.21 595.204 268.052Q598.086 269.002 600.948 270.012Q603.81 271.023 606.65 272.093Q609.49 273.163 612.306 274.293Q615.123 275.422 617.916 276.611Q620.708 277.799 623.475 279.046Q626.242 280.293 628.982 281.598Q631.722 282.903 634.434 284.265Q637.146 285.627 639.829 287.045Q642.512 288.464 645.165 289.938Q647.817 291.413 650.438 292.943Q653.059 294.473 655.647 296.058Q658.236 297.643 660.79 299.281Q663.344 300.92 665.864 302.612Q668.383 304.304 670.867 306.049Q673.35 307.793 675.796 309.59Q678.242 311.386 680.65 313.233Q683.058 315.081 685.427 316.978Q687.795 318.875 690.123 320.822Q692.452 322.769 694.738 324.764Q697.025 326.759 699.27 328.802Q701.514 330.845 703.715 332.935Q705.916 335.024 708.073 337.159Q710.229 339.294 712.341 341.475Q714.452 343.655 716.517 345.879Q718.582 348.103 720.6 350.369Q722.618 352.636 724.588 354.945Q726.558 357.254 728.479 359.603Q730.4 361.953 732.271 364.342Q734.142 366.731 735.963 369.159Q737.783 371.588 739.553 374.053Q741.322 376.519 743.039 379.022Q744.756 381.524 746.42 384.062C755.128 397.075 762.579 410.816 769.705 424.744C756.409 419.689 743.558 415.805 729.676 412.636Q732.103 414.907 734.463 417.246C763.399 446.016 784.159 489.66 791.182 529.694C793.829 544.783 794.515 559.942 794.542 575.229C782.119 562.916 769.87 551.536 755.32 541.749C759.377 553.132 763.564 564.287 766.655 575.994Q767.715 580.083 768.647 584.203Q769.58 588.323 770.384 592.47Q771.188 596.617 771.863 600.786Q772.537 604.956 773.082 609.145Q773.627 613.334 774.041 617.538Q774.456 621.742 774.739 625.956Q775.023 630.171 775.175 634.392Q775.327 638.614 775.349 642.838Q775.37 647.062 775.26 651.284Q775.15 655.507 774.908 659.724Q774.667 663.942 774.295 668.149Q773.922 672.357 773.42 676.551Q772.917 680.745 772.284 684.922Q771.651 689.098 770.889 693.253Q770.126 697.408 769.235 701.537Q768.344 705.666 767.325 709.765C764.205 722.365 758.95 734.272 755.52 746.74C752.241 740.715 749.842 733.988 747.009 727.72C740.426 713.157 732.505 697.641 722.612 685.043C721.866 698.945 720.895 713.125 717.215 726.614C711.776 744.111 702.303 773.109 686.112 782.983C633.558 781.523 580.997 782.678 528.432 782.56C517.067 782.535 505.685 782.373 494.322 782.519C485.862 782.628 477.17 783.378 468.765 782.235C453.982 780.224 438.826 774.557 424.585 770.109C437.73 770.82 451.074 769.427 464.298 769.872C470.029 763.602 475.999 757.507 481.459 751C467.008 750.37 452.774 750.297 438.324 751.053C432.634 756.594 426.308 762.765 421.846 769.346C416.983 767.959 412.296 765.871 407.61 763.983C411.095 759.52 415.084 755.316 418.828 751.061C405.898 750.683 392.962 750.858 380.027 750.845C373.022 747.247 366.459 742.359 359.826 738.092C366.478 732.032 374.083 726.801 381 720.999C367.22 720.902 353.284 720.466 339.523 721.067C325.578 710.491 313.325 697.372 302.55 683.633C259.722 629.021 239.463 560.741 247.862 491.654C254.302 438.684 275.681 387.124 311.464 347.123C324.922 332.079 339.818 319.356 355.667 306.948C349.324 295.919 343.855 284.32 337.647 273.19C331.774 262.66 324.92 252.371 319.919 241.418ZM440.019 555.617C447.611 575.004 452.616 595.145 443.854 615.176C437.885 628.82 427.345 639.773 413.36 645.223C406.907 647.739 400.177 648.568 393.289 648.756C405.709 653.253 418.323 655.03 430.684 649.298C456.453 637.35 464.665 603.6 490.348 589.026C512.768 576.303 539.188 590.103 560.766 573.393C578.915 558.723 584.872 543.481 587.972 520.859C588.857 514.401 589.391 507.855 590.658 501.459C593.594 527.108 596.906 554.127 579.614 575.912C569.27 588.944 552.928 596.09 536.64 597.744C525.494 598.876 514.347 597.554 503.137 599.098C506.925 637.823 498.973 674.604 477.196 706.988L591.459 707.9C595.946 710.636 600.092 714.639 604.208 717.925Q615.148 726.706 626.396 735.09Q640.744 745.88 655.402 756.244C663.739 762.085 672.387 767.509 679.983 774.327C687.75 755.448 693.129 734.753 695.822 714.521C704.453 649.659 691.457 568.536 666.379 508.379C660.297 493.791 650.112 467.986 639.325 456.575C635.628 452.664 630.977 449.741 626.024 447.686C619.943 445.162 613.355 443.896 606.775 444.59C601.985 445.37 597.442 446.684 592.867 448.3C581.16 452.434 569.929 457.825 558.48 462.606C547.678 467.116 536.403 471.075 526.042 476.543C523.111 478.09 519.355 480.121 517.327 482.783C504.831 499.185 523.566 525.866 489.831 531.879C475.917 534.359 450.931 533.93 438.866 525.469C433.955 522.025 430.753 516.982 428.567 511.495C425.991 505.029 423.673 483.297 414.24 484.588C411.054 485.024 408.623 486.906 406.771 489.453C404.369 492.758 403.225 496.858 401.427 500.497C399.139 505.129 396.297 509.427 393.361 513.665C384.347 526.672 374.738 539.373 365.076 551.906C358.247 560.764 350.274 569.41 345.247 579.447C342.309 585.311 341.363 590.758 342.53 597.236C344.648 608.991 352.976 622.047 362.853 628.787C372.2 635.166 383.176 635.702 393.99 633.55C409.494 630.463 421.607 621.567 430.263 608.448C440.735 592.577 443.377 574.109 440.019 555.617ZM488.751 310.201C470.327 311.9 454.279 318.745 439.193 329.312Q449.193 338.039 459.482 346.425C473.879 358.302 485.237 368.211 486.532 388.03C486.828 392.552 486.658 397.143 486.43 401.667L485.623 408.867C504.133 396.287 521.537 375.109 525.727 352.635C527.65 342.319 525.667 331.171 519.588 322.514C514.898 315.836 507.555 311.828 499.603 310.5C495.99 309.896 492.393 309.919 488.751 310.201ZM721.056 388.627C698.321 362.956 672.598 350.096 638.255 347.948C635.364 347.767 632.449 347.627 629.552 347.695C622.107 348.396 614.8 348.654 607.383 349.869C607 361.776 604.583 373.336 601.64 384.838C645.887 433.23 672.84 478.717 692.239 541.249C700.07 566.495 705.904 592.153 708.48 618.483C719.04 632.293 729.34 645.746 737.964 660.913C742.307 668.55 745.792 676.469 749.764 684.278C755.547 649.706 750.715 611.106 742.177 577.386C735.834 557.38 729.051 537.48 719.462 518.754C714.739 509.53 708.522 500.949 704.074 491.657C723.913 494.065 742.081 499.946 760.398 507.745C746.046 459.21 710.907 420.359 666.798 396.353C662.373 393.945 657.864 391.599 653.326 389.41C674.035 381.22 699.884 383.171 721.056 388.627ZM480.349 521.876C486.843 521.347 493.574 520.853 498.099 515.474C504.704 507.623 503.357 490.76 503.447 480.826C495.415 471.802 482.245 469.822 470.729 469.178C466.892 468.964 462.537 468.731 458.722 469.217C452.439 469.66 440.863 469.397 436.615 474.619C432.878 479.212 433.924 487.088 434.7 492.55C435.744 499.895 438.335 511.303 444.706 515.923C454.064 522.709 469.281 522.013 480.349 521.876ZM401.653 720.494C396.186 726.282 390.575 732.003 385.397 738.051C397.662 738.145 410.133 738.789 422.375 738.456C425.64 738.547 427.358 738.765 429.906 736.346C435.124 731.39 439.803 725.401 444.621 720.029C432.342 720.044 419.984 719.814 407.713 720.213L401.653 720.494ZM375.086 518.219C382.517 510.176 397.082 488.857 396.395 478.123C396.267 476.14 395.664 474.325 394.099 473.024C387.947 467.909 374.586 468.68 366.927 468.757C358.646 469.282 351.822 470.716 344.052 473.684C348.346 487.196 352.039 508.591 365.99 515.491C368.733 516.847 372.08 517.692 375.086 518.219ZM484.034 769.372L499.377 769.263C507.947 769.158 516.54 769.21 525.106 768.984C531.484 763.183 537.189 756.313 543.001 749.937C538.168 749.983 532.671 749.494 527.927 750.22C519.053 750.591 510.175 750.283 501.304 750.561C495.307 756.42 488.819 762.462 484.034 769.372ZM570.493 720.02C559.334 720.059 548.101 719.706 536.958 720.27Q532.145 720.494 527.328 720.432C522.072 726.437 516.625 732.298 511.542 738.451Q528.576 738.173 545.611 738.181Q549.002 738.297 552.394 738.336C558.574 732.505 564.814 726.345 570.493 720.02ZM490.277 737.766C497.041 732.98 502.891 726.756 508.061 720.318C495.155 719.406 478.867 720.073 465.543 719.959C459.936 725.897 454.232 731.804 448.95 738.035C455.765 738.013 486.115 738.93 490.277 737.766ZM351.482 274.777L403.825 371.045C410.483 383.374 415.935 396.488 423.111 408.511C431.656 409.154 438.717 407.325 445.294 401.615C445.993 401.007 446.666 400.394 447.323 399.742C453.951 390.846 458.476 378.326 456.651 367.114C456.241 364.592 455.746 362.789 454.218 360.723C449.49 354.335 442.514 348.972 436.643 343.626Q412.334 321.538 386.556 301.185C376.521 293.127 366.439 284.867 355.916 277.455C354.493 276.453 353.139 275.336 351.482 274.777ZM591.995 282.407C577.165 295.708 562.192 309.989 552.112 327.366C543.467 342.27 540.455 358.541 533.585 374.086C521.531 401.364 497.548 423.326 470.614 435.476C463.856 438.525 456.937 441.248 449.591 442.458C460.712 431.001 469.657 410.568 469.479 394.511C469.435 390.483 468.866 386.551 468.082 382.607C464.799 396.016 459.762 407.964 447.505 415.514C437.624 421.6 427.77 421.658 416.585 420.33L405.484 443.178Q401.097 452.225 396.878 461.351C401.987 463.392 407.164 465.739 412.628 466.616C422.022 468.124 430.183 463.64 438.936 461.166C443.675 459.827 448.583 459.077 453.476 458.597C473.633 456.622 492.62 460.075 511.928 465.466L565.289 443.273C582.23 436.22 599.457 427.36 617.76 424.786C608.617 411.356 597.021 400.366 587.247 387.555C597.65 357.848 601.048 328.646 595.857 297.428C595.346 294.354 594.27 285.334 592.682 283.137C592.486 282.866 592.224 282.65 591.995 282.407Z"/>
  <path fill="#006FEE" transform="scale(0.195312 0.195312)" d="M380.678 571.126C381.376 571.049 382.052 571.026 382.755 571.045C387.076 571.163 391.257 572.063 394.28 575.38C397.275 578.666 398.443 583.268 398.252 587.634C397.899 595.667 393.482 603.8 387.641 609.188L387.113 608.834C388.353 601.701 388.09 592.21 384.03 586.01C380.136 580.063 373.626 578.082 367.075 576.67C371.406 573.629 375.502 572.01 380.678 571.126Z"/>
  <path fill="#006FEE" transform="scale(0.195312 0.195312)" d="M580.825 319.939C580.934 320.061 581.057 320.172 581.152 320.305C585.333 326.157 585.768 342.947 584.947 350.004C582.963 367.052 572.918 382.087 559.593 392.573L559.073 393.025L558.097 392.841C555.603 388.467 555.785 380.935 555.778 375.998C555.745 352.592 564.648 336.194 580.825 319.939Z"/>
</svg>
